HIERARCHY
ROOT Hips
{
	OFFSET 0.000000 0.000000 0.000000
	CHANNELS 6 Xposition Yposition Zposition Zrotation Yrotation Xrotation 
	JOINT LHipJoint
	{
		OFFSET 0.000000 0.000000 0.000000
		CHANNELS 3 Zrotation Yrotation Xrotation
		JOINT LeftUpLeg
		{
			OFFSET 1.363060 -1.794630 0.839290
			CHANNELS 3 Zrotation Yrotation Xrotation
			JOINT LeftLeg
			{
				OFFSET 2.448110 -6.726130 0.000000
				CHANNELS 3 Zrotation Yrotation Xrotation
				JOINT LeftFoot
				{
					OFFSET 2.562200 -7.039590 0.000000
					CHANNELS 3 Zrotation Yrotation Xrotation
					JOINT LeftToeBase
					{
						OFFSET 0.157640 -0.433110 2.322550
						CHANNELS 3 Zrotation Yrotation Xrotation
						End Site
						{
							OFFSET 0.000000 0.000000 0.000000
						}
					}
				}
			}
		}
	}
	JOINT RHipJoint
	{
		OFFSET 0.000000 0.000000 0.000000
		CHANNELS 3 Zrotation Yrotation Xrotation
		JOINT RightUpLeg
		{
			OFFSET -1.305520 -1.794630 0.839290
			CHANNELS 3 Zrotation Yrotation Xrotation
			JOINT RightLeg
			{
				OFFSET -2.542530 -6.985550 0.000000
				CHANNELS 3 Zrotation Yrotation Xrotation
				JOINT RightFoot
				{
					OFFSET -2.568260 -7.056230 0.000000
					CHANNELS 3 Zrotation Yrotation Xrotation
					JOINT RightToeBase
					{
						OFFSET -0.164730 -0.452590 2.363150
						CHANNELS 3 Zrotation Yrotation Xrotation
						End Site
						{
							OFFSET 0.000000 0.000000 0.000000
						}
					}
				}
			}
		}
	}
	JOINT LowerBack
	{
		OFFSET 0.000000 0.000000 0.000000
		CHANNELS 3 Zrotation Yrotation Xrotation
		JOINT Spine
		{
			OFFSET 0.028270 2.035590 -0.193380
			CHANNELS 3 Zrotation Yrotation Xrotation
			JOINT Spine1
			{
				OFFSET 0.056720 2.048850 -0.042750
				CHANNELS 3 Zrotation Yrotation Xrotation
				JOINT Neck
				{
					OFFSET 0.000000 0.000000 0.000000
					CHANNELS 3 Zrotation Yrotation Xrotation
					JOINT Neck1
					{
						OFFSET -0.054170 1.746240 0.172020
						CHANNELS 3 Zrotation Yrotation Xrotation
						JOINT Head
						{
							OFFSET 0.104070 1.761360 -0.123970
							CHANNELS 3 Zrotation Yrotation Xrotation
							End Site
							{
								OFFSET 0.000000 0.000000 0.000000
							}
						}
					}
				}
				JOINT LeftShoulder
				{
					OFFSET 0.000000 0.000000 0.000000
					CHANNELS 3 Zrotation Yrotation Xrotation
					JOINT LeftArm
					{
						OFFSET 3.362410 1.200890 -0.311210
						CHANNELS 3 Zrotation Yrotation Xrotation
						JOINT LeftForeArm
						{
							OFFSET 4.983000 -0.000000 -0.000000
							CHANNELS 3 Zrotation Yrotation Xrotation
							JOINT LeftHand
							{
								OFFSET 3.483560 -0.000000 -0.000000
								CHANNELS 3 Zrotation Yrotation Xrotation
								JOINT LeftFingerBase
								{
									OFFSET 0.000000 0.000000 0.000000
									CHANNELS 3 Zrotation Yrotation Xrotation
									JOINT LeftHandIndex1
									{
										OFFSET 0.715260 -0.000000 -0.000000
										CHANNELS 3 Zrotation Yrotation Xrotation
										End Site
										{
											OFFSET 0.000000 0.000000 0.000000
										}
									}
								}
								JOINT LThumb
								{
									OFFSET 0.000000 0.000000 0.000000
									CHANNELS 3 Zrotation Yrotation Xrotation
									End Site
									{
										OFFSET 0.000000 0.000000 0.000000
									}
								}
							}
						}
					}
				}
				JOINT RightShoulder
				{
					OFFSET 0.000000 0.000000 0.000000
					CHANNELS 3 Zrotation Yrotation Xrotation
					JOINT RightArm
					{
						OFFSET -3.136600 1.374050 -0.404650
						CHANNELS 3 Zrotation Yrotation Xrotation
						JOINT RightForeArm
						{
							OFFSET -5.241900 -0.000000 -0.000000
							CHANNELS 3 Zrotation Yrotation Xrotation
							JOINT RightHand
							{
								OFFSET -3.444170 -0.000000 -0.000000
								CHANNELS 3 Zrotation Yrotation Xrotation
								JOINT RightFingerBase
								{
									OFFSET 0.000000 0.000000 0.000000
									CHANNELS 3 Zrotation Yrotation Xrotation
									JOINT RightHandIndex1
									{
										OFFSET -0.622530 -0.000000 -0.000000
										CHANNELS 3 Zrotation Yrotation Xrotation
										End Site
										{
											OFFSET 0.000000 0.000000 0.000000
										}
									}
								}
								JOINT RThumb
								{
									OFFSET 0.000000 0.000000 0.000000
									CHANNELS 3 Zrotation Yrotation Xrotation
									End Site
									{
										OFFSET 0.000000 0.000000 0.000000
									}
								}
							}
						}
					}
				}
			}
		}
	}
}
MOTION
Frames: 5
Frame Time: 0.008333
-39.712811 18.015514 -3.405520 -8.437375 75.202098 -6.859571 -3.372133 0.090201 0.323730 -2.882527 -10.523397 -16.677973 -2.304321 7.943764 22.194743 6.260637 -9.641598 18.340162 0.178600 -2.722000 -7.505600 4.185837 -2.770395 3.444812 15.371287 17.064270 2.408394 2.795748 -5.671714 17.280768 -2.641836 4.232215 -6.060715 -1.054800 -6.530400 18.331400 1.995794 -0.319873 11.070635 3.705462 -0.087224 5.553054 0.645403 0.733151 -0.341617 -3.027625 5.984610 -7.596673 1.033558 7.526145 -0.754851 -1.309800 3.514400 0.216500 -1.000801 -6.123117 0.560426 -85.087178 6.719848 21.995151 25.462905 -35.257450 -10.444550 0.547102 -1.616528 -0.202942 0.332417 10.113052 -0.041800 -7.125000 0.000000 0.000000 -23.845200 40.465100 2.853200 1.998954 6.688642 2.414217 69.900080 -3.692844 40.538149 -30.311718 37.026563 -10.760606 0.767975 0.318859 1.430730 -6.521291 -16.386847 2.102500 7.125000 0.000000 0.000000 19.207000 -45.880100 -0.433200 
-39.718781 18.012427 -3.406240 -8.653934 75.265573 -7.098022 -3.358689 0.083859 0.318880 -2.847373 -10.513540 -16.699080 -2.306185 7.941873 22.199786 6.292819 -9.735312 18.384981 0.180900 -2.739300 -7.553900 4.187737 -2.770303 3.452890 15.427393 16.998403 2.422423 2.797194 -5.665877 17.271831 -2.611050 4.151150 -6.053001 -1.014300 -6.407700 17.972100 2.036569 -0.330303 11.101650 3.733330 -0.092495 5.540509 0.660826 0.730307 -0.374578 -3.045759 5.951398 -7.577761 1.018984 7.484409 -0.713102 -1.312500 3.495200 0.224100 -0.999454 -6.119923 0.558383 -85.141120 6.759125 22.044839 25.479021 -35.272471 -10.452245 0.545112 -1.617418 -0.173725 0.367801 10.179073 -0.034500 -7.125000 0.000000 0.000000 -23.838100 40.529400 2.811600 1.999014 6.688826 2.414026 69.890044 -3.721897 40.460308 -30.235372 36.965181 -10.715588 0.766053 0.318595 1.488853 -6.491841 -16.340238 2.087700 7.125000 0.000000 0.000000 19.218100 -45.832800 -0.410200 
-39.723927 18.015823 -3.407270 -8.678772 75.355545 -7.157836 -3.365873 0.083691 0.324472 -2.856444 -10.529093 -16.678834 -2.316943 7.926678 22.168122 6.311377 -9.796329 18.421404 0.179000 -2.724900 -7.513700 4.189489 -2.766445 3.447288 15.431753 17.001937 2.403982 2.794243 -5.674597 17.296472 -2.584815 4.081469 -6.008637 -1.001400 -6.368100 17.856200 2.043078 -0.357138 11.116800 3.734336 -0.124560 5.542004 0.663767 0.714077 -0.379388 -3.007562 5.951963 -7.555962 0.970032 7.485968 -0.699184 -1.333200 3.496300 0.227000 -1.000913 -6.118865 0.558357 -85.160974 6.753978 22.072028 25.465698 -35.259078 -10.441598 0.544976 -1.615359 -0.168086 0.391135 10.125544 -0.029600 -7.125000 0.000000 0.000000 -23.799600 40.480600 2.837200 1.998629 6.691387 2.414736 69.892307 -3.727913 40.402973 -30.180910 36.921446 -10.684308 0.766504 0.319515 1.532135 -6.461376 -16.344840 2.079600 7.125000 0.000000 0.000000 19.247400 -45.834900 -0.411900 
-39.730206 18.015823 -3.407167 -8.819425 75.428267 -7.305674 -3.361745 0.077324 0.321860 -2.825975 -10.547519 -16.691553 -2.325592 7.913295 22.141104 6.337319 -9.870300 18.482483 0.177000 -2.710100 -7.472600 4.193903 -2.761310 3.444998 15.471206 16.983293 2.391933 2.791340 -5.681139 17.316399 -2.557390 4.001415 -6.029743 -0.977700 -6.294400 17.641200 2.055499 -0.368639 11.104012 3.750197 -0.136998 5.545624 0.680477 0.706127 -0.370927 -2.939521 5.896739 -7.623886 0.893425 7.425701 -0.615448 -1.366000 3.467600 0.264300 -1.000628 -6.110643 0.557415 -85.188808 6.750903 22.113684 25.473520 -35.264918 -10.445054 0.544652 -1.616798 -0.139642 0.375201 10.177401 -0.033100 -7.125000 0.000000 0.000000 -23.831400 40.527600 2.811800 1.999337 6.698911 2.416477 69.893222 -3.739088 40.317755 -30.104158 36.862806 -10.645993 0.774433 0.323048 1.544958 -6.455652 -16.488481 2.098100 7.125000 0.000000 0.000000 19.301100 -45.974400 -0.482100 
-39.734529 18.015514 -3.408196 -8.812426 75.482285 -7.311266 -3.368968 0.077073 0.324519 -2.831883 -10.571372 -16.687127 -2.337222 7.897731 22.102298 6.344905 -9.894071 18.537666 0.176600 -2.706900 -7.463800 4.197424 -2.758690 3.437553 15.481035 17.055131 2.409335 2.787860 -5.691363 17.347584 -2.506467 3.857280 -5.998556 -0.957000 -6.229300 17.451100 2.056424 -0.373961 11.108532 3.745855 -0.142815 5.527063 0.683504 0.699605 -0.402474 -2.699639 5.812673 -7.766510 0.662301 7.344378 -0.409628 -1.469600 3.429900 0.357600 -1.002734 -6.084975 0.555816 -85.187771 6.786566 22.203366 25.490344 -35.281853 -10.455566 0.545548 -1.616994 -0.170457 0.371133 10.165820 -0.033900 -7.125000 0.000000 0.000000 -23.831000 40.517100 2.818400 1.998990 6.720369 2.423737 69.886622 -3.797527 40.220686 -30.017449 36.796791 -10.597850 0.774748 0.322135 1.644110 -6.441203 -16.480190 2.092800 7.125000 0.000000 0.000000 19.311300 -45.965200 -0.477800 
